PathFileType	4	(x/y/z)	S06_P20_T09
DataRate	CameraRate	NumFrames	NumMarkers	Units	OrigDataRate	OrigDataStartFrame	OrigNumFrames
240	240	7	51	mm	240	1	332
Frame#	Time	Sternum			R.Acromium			L.Acromium			Top.Head			R.ASIS			L.ASIS			R.PSIS			L.PSIS			R.Great.Tro			L.Great.Tro			R.Iliac.Crest			L.Iliac.Crest			V.Sacral			R.Thigh.Upper.Post			R.Thigh.Lower.Ant			R.Thigh.Lower.Post			R.Thigh.Upper.Ant			R.Knee.Lat			R.Knee.Med			R.Shank.Upper.Post			R.Shank.Lower.Ant			R.Shank.Lower.Post			R.Shank.Upper.Ant			R.Ankle.Lat			R.Ankle.Med			R.Heel.Upper			R.Heel.Med			R.Heel.Lat			R.Toe.Lat			R.Toe.Med			R.Toe.Tip			L.Thigh.Upper.Post			L.Thigh.Lower.Ant			L.Thigh.Lower.Post			L.Thigh.Upper.Ant			L.Knee.Lat			L.Knee.Med			L.Shank.Upper.Post			L.Shank.Lower.Ant			L.Shank.Lower.Post			L.Shank.Upper.Ant			L.Ankle.Lat			L.Ankle.Med			L.Heel.Upper			L.Heel.Med			L.Heel.Lat			L.Toe.Lat			L.Toe.Med			L.Toe.Tip			Cervical.Spine			Back			
		X1	Y1	Z1	X2	Y2	Z2	X3	Y3	Z3	X4	Y4	Z4	X5	Y5	Z5	X6	Y6	Z6	X7	Y7	Z7	X8	Y8	Z8	X9	Y9	Z9	X10	Y10	Z10	X11	Y11	Z11	X12	Y12	Z12	X13	Y13	Z13	X14	Y14	Z14	X15	Y15	Z15	X16	Y16	Z16	X17	Y17	Z17	X18	Y18	Z18	X19	Y19	Z19	X20	Y20	Z20	X21	Y21	Z21	X22	Y22	Z22	X23	Y23	Z23	X24	Y24	Z24	X25	Y25	Z25	X26	Y26	Z26	X27	Y27	Z27	X28	Y28	Z28	X29	Y29	Z29	X30	Y30	Z30	X31	Y31	Z31	X32	Y32	Z32	X33	Y33	Z33	X34	Y34	Z34	X35	Y35	Z35	X36	Y36	Z36	X37	Y37	Z37	X38	Y38	Z38	X39	Y39	Z39	X40	Y40	Z40	X41	Y41	Z41	X42	Y42	Z42	X43	Y43	Z43	X44	Y44	Z44	X45	Y45	Z45	X46	Y46	Z46	X47	Y47	Z47	X48	Y48	Z48	X49	Y49	Z49	X50	Y50	Z50	X51	Y51	Z51	

1	0	-1291.3	1282.7	315.78	-1404.9	1494.3	490.64	-1432.1	1495.9	139.78	-1345.2	1807.8	310.68	NaN	NaN	NaN	NaN	NaN	NaN	-1548.7	1074.1	353.77	-1552.8	1076.8	273.77	-1414.1	980.01	497.99	-1442.4	978.64	139.76	-1434.9	1127.5	478.76	-1420.2	1119	157.37	-1565.3	1041.9	318.42	-1437.2	727.18	475.84	-1395.2	647	437.02	-1481.7	650.06	459.95	NaN	NaN	NaN	-1475.1	531.36	438.95	-1479.5	544.02	310.44	-1598.1	334.5	437.44	NaN	NaN	NaN	-1633.5	266.3	418.51	NaN	NaN	NaN	-1671.2	137.49	388.11	-1654.1	135.6	302.21	-1746.1	108.26	343.99	-1739	73.577	316.2	-1739.8	78.337	380.3	-1566	45.188	420.24	-1540.5	43.767	298.69	-1472.7	49.744	344.46	-1306.2	733.87	156.41	-1242	671.04	220.98	-1303.7	644.65	174.17	-1255.7	763.14	199.06	-1287	553.88	194.14	-1264.6	565.26	314.62	-1273.1	324.13	201.89	-1194.2	281.13	197.94	-1258.3	253.27	217.66	-1212.1	350.11	188.37	-1171.7	122.29	211.41	-1161.4	135.51	302.16	NaN	NaN	NaN	-1210.5	39.692	295.11	-1209.2	37.96	233.56	-1043.4	96.027	191.52	NaN	NaN	NaN	-968.02	156.62	251.64	-1477.1	1549.8	319.18	-1539.5	1278.2	322.7
2	0.0041667	-1286.4	1282.3	315.36	-1400	1493.8	490.33	-1427.4	1495.5	139.44	-1340.6	1807.4	310.44	NaN	NaN	NaN	NaN	NaN	NaN	-1543.4	1073.7	353.35	-1547.6	1076.3	273.38	-1409.4	979.84	497.68	-1437.6	978.12	139.67	-1430	1127.2	478.43	-1415	1118.4	156.98	-1560.2	1041.4	318.05	-1432.9	727.3	475.99	-1390.8	646.19	438.33	-1475.7	649.56	459.93	NaN	NaN	NaN	-1470.1	531.06	439.52	-1473.7	543.39	310.83	-1594.8	335.42	437.66	NaN	NaN	NaN	-1631.1	267.74	418.65	NaN	NaN	NaN	-1669.8	138.98	388.46	-1652.7	137.24	302.52	-1744.6	110.81	344.34	-1738.2	76.327	316.29	-1739.1	80.865	380.41	-1565.8	45.188	420.29	-1540.3	43.937	298.71	-1472.5	49.522	344.46	-1301.5	733.12	156.36	-1237.1	670.29	220.73	-1299.1	643.95	174.39	-1250.7	762.37	198.63	-1282.6	553.18	194.16	-1260	564.71	314.38	-1270.2	323.35	201.98	-1191.6	279.9	198.44	-1255.9	252.43	217.79	-1209	348.91	188.77	-1170.3	121.08	211.87	-1160.3	134.12	302.66	-1229.9	63.263	260.95	-1210.1	39.587	295.19	-1208.6	37.969	233.63	-1041.9	93.735	192.73	NaN	NaN	NaN	-966.58	153.6	253.37	-1472.3	1549.4	318.88	-1534.5	1277.7	322.36
3	0.0083333	-1281.4	1282	314.92	-1395	1493.3	490	-1422.5	1495.1	139.09	-1335.7	1807.1	310.19	NaN	NaN	NaN	NaN	NaN	NaN	-1537.9	1073.2	352.91	-1542.3	1075.9	272.96	-1404.5	979.65	497.34	-1432.5	977.58	139.56	-1424.9	1127	478.08	-1409.5	1117.9	156.57	-1554.9	1041	317.65	-1428.4	727.4	476.14	-1386	645.38	439.67	-1469.4	649.01	459.93	NaN	NaN	NaN	-1464.8	530.72	440.12	-1467.5	542.7	311.27	-1591.2	336.41	437.9	NaN	NaN	NaN	-1628.5	269.29	418.81	NaN	NaN	NaN	-1668.1	140.59	388.86	-1651.2	139	302.88	-1743	113.57	344.7	-1737.2	79.307	316.39	-1738.3	83.602	380.54	-1565.6	45.194	420.34	-1540	44.131	298.73	-1472.3	49.277	344.46	-1296.6	732.34	156.31	-1232.1	669.5	220.48	-1294.3	643.24	174.63	-1245.4	761.56	198.19	-1278	552.47	194.17	-1255.2	564.13	314.14	-1267.3	322.56	202.09	-1188.8	278.63	198.96	-1253.5	251.56	217.93	-1205.7	347.68	189.18	-1168.7	119.85	212.34	-1159.2	132.71	303.18	-1228.6	63.344	261.05	-1209.7	39.499	295.27	-1207.9	37.998	233.7	-1040.3	91.377	193.95	NaN	NaN	NaN	-965.07	150.45	255.09	-1467.3	1548.9	318.55	-1529.4	1277.2	321.99
4	0.0125	-1276.1	1281.6	314.46	-1389.8	1492.8	489.65	-1417.5	1494.8	138.71	-1330.6	1806.7	309.93	NaN	NaN	NaN	NaN	NaN	NaN	-1532.3	1072.8	352.44	-1536.8	1075.4	272.52	-1399.4	979.45	496.99	-1427.2	977.03	139.44	-1419.6	1126.7	477.7	-1403.9	1117.3	156.14	-1549.4	1040.5	317.22	-1423.6	727.47	476.31	-1381	644.57	441.02	-1462.7	648.42	459.96	NaN	NaN	NaN	-1459.1	530.35	440.75	-1460.9	541.96	311.75	-1587.5	337.47	438.17	NaN	NaN	NaN	-1625.7	270.95	419	NaN	NaN	NaN	-1666.3	142.32	389.29	-1649.5	140.87	303.28	-1741.3	116.56	345.08	-1736	82.526	316.5	-1737.5	86.557	380.67	-1565.3	45.208	420.39	-1539.7	44.354	298.76	-1472	49.008	344.47	-1291.6	731.55	156.26	-1226.9	668.69	220.23	-1289.4	642.51	174.87	-1240	760.74	197.74	-1273.3	551.74	194.19	-1250.3	563.53	313.91	-1264.2	321.76	202.22	-1186	277.34	199.48	-1251	250.69	218.09	-1202.3	346.44	189.6	-1167.1	118.62	212.82	-1157.9	131.28	303.71	-1227.3	63.441	261.17	-1209.3	39.429	295.36	-1207.1	38.053	233.78	-1038.8	88.975	195.15	NaN	NaN	NaN	-963.49	147.2	256.79	-1462.1	1548.5	318.21	-1524	1276.7	321.61
5	0.016667	-1270.7	1281.2	313.99	-1384.5	1492.3	489.28	-1412.3	1494.4	138.32	-1325.4	1806.4	309.67	NaN	NaN	NaN	NaN	NaN	NaN	-1526.5	1072.4	351.95	-1531.1	1075	272.05	-1394.1	979.24	496.61	-1421.7	976.49	139.29	-1414.2	1126.4	477.31	-1398.1	1116.8	155.7	-1543.7	1040.1	316.77	-1418.5	727.52	476.5	-1375.5	643.77	442.38	-1455.8	647.79	460.02	NaN	NaN	NaN	-1453	529.94	441.41	-1454	541.17	312.29	-1583.4	338.61	438.47	NaN	NaN	NaN	-1622.6	272.7	419.22	NaN	NaN	NaN	-1664.3	144.17	389.77	-1647.5	142.86	303.73	-1739.4	119.78	345.48	-1734.7	85.993	316.62	-1736.5	89.737	380.81	-1565.1	45.236	420.43	-1539.4	44.612	298.79	-1471.8	48.714	344.48	-1286.4	730.76	156.21	-1221.6	667.86	219.98	-1284.4	641.78	175.11	-1234.4	759.9	197.28	-1268.5	551	194.2	-1245.3	562.92	313.68	-1261	320.96	202.36	-1183.1	276.05	200	-1248.4	249.81	218.27	-1198.9	345.2	190.03	-1165.4	117.4	213.31	-1156.6	129.84	304.25	-1225.8	63.557	261.31	-1208.9	39.383	295.45	-1206.4	38.135	233.86	-1037.2	86.55	196.31	NaN	NaN	NaN	-961.86	143.87	258.44	-1456.8	1548.1	317.85	-1518.5	1276.2	321.21
6	0.020833	-1265.2	1280.9	313.51	-1379.1	1491.8	488.89	-1407	1494.1	137.91	-1320	1806	309.41	NaN	NaN	NaN	NaN	NaN	NaN	-1520.6	1072	351.43	-1525.3	1074.5	271.56	-1388.7	979.01	496.2	-1416.1	975.95	139.12	-1408.6	1126.1	476.91	-1392.2	1116.3	155.25	-1537.9	1039.7	316.29	-1413.1	727.53	476.71	-1369.8	643	443.73	-1448.6	647.12	460.13	NaN	NaN	NaN	-1446.5	529.5	442.1	-1446.8	540.33	312.88	-1579.1	339.84	438.81	NaN	NaN	NaN	-1619.3	274.57	419.48	NaN	NaN	NaN	-1662.1	146.14	390.3	-1645.4	144.97	304.23	-1737.2	123.25	345.9	-1733.3	89.719	316.75	-1735.3	93.15	380.97	-1564.9	45.284	420.46	-1539	44.911	298.83	-1471.6	48.395	344.51	-1281.1	729.98	156.16	-1216.2	667.03	219.75	-1279.2	641.05	175.35	-1228.8	759.05	196.83	-1263.7	550.27	194.2	-1240.3	562.31	313.47	-1257.8	320.17	202.51	-1180.1	274.77	200.53	-1245.7	248.95	218.45	-1195.4	343.96	190.46	-1163.7	116.2	213.81	-1155.3	128.42	304.79	-1224.4	63.694	261.45	-1208.4	39.363	295.55	-1205.7	38.247	233.95	-1035.7	84.121	197.42	NaN	NaN	NaN	-960.19	140.47	260.01	-1451.3	1547.8	317.48	-1512.9	1275.8	320.8
7	0.025	-1259.6	1280.6	313.02	-1373.5	1491.4	488.49	-1401.6	1493.7	137.49	-1314.6	1805.7	309.14	NaN	NaN	NaN	NaN	NaN	NaN	-1514.7	1071.7	350.9	-1519.4	1074.1	271.04	-1383.1	978.78	495.77	-1410.3	975.42	138.92	-1403	1125.9	476.48	-1386.2	1115.8	154.79	-1532	1039.2	315.77	-1407.5	727.5	476.94	-1363.7	642.27	445.05	-1441.2	646.42	460.28	NaN	NaN	NaN	-1439.7	529.03	442.82	-1439.2	539.44	313.53	-1574.5	341.14	439.18	NaN	NaN	NaN	-1615.7	276.54	419.78	NaN	NaN	NaN	-1659.7	148.25	390.88	-1643	147.2	304.79	-1734.9	126.98	346.34	-1731.6	93.715	316.9	-1734	96.806	381.15	-1564.6	45.361	420.49	-1538.6	45.259	298.87	-1471.4	48.052	344.56	-1275.8	729.21	156.09	-1210.8	666.19	219.51	-1274	640.33	175.58	-1223.1	758.2	196.39	-1258.8	549.55	194.19	-1235.2	561.69	313.26	-1254.5	319.41	202.66	-1177.1	273.5	201.04	-1243	248.11	218.65	-1191.8	342.75	190.88	-1162	115.03	214.3	-1153.9	127.03	305.33	-1222.8	63.854	261.61	-1207.9	39.373	295.66	-1204.9	38.389	234.04	-1034.1	81.705	198.47	-1022.2	99.706	316.44	-958.47	137.03	261.48	-1445.8	1547.4	317.08	-1507.2	1275.3	320.37
